<?xml version="1.0" encoding="utf-8"?>
<!-- Generator: Adobe Illustrator 16.0.0, SVG Export Plug-In . SVG Version: 6.00 Build 0)  -->
<!DOCTYPE svg PUBLIC "-//W3C//DTD SVG 1.1//EN" "http://www.w3.org/Graphics/SVG/1.1/DTD/svg11.dtd">
<svg version="1.1" id="Layer_1" xmlns="http://www.w3.org/2000/svg" xmlns:xlink="http://www.w3.org/1999/xlink" x="0px" y="0px"
	 width="133px" height="132px" viewBox="0 0 133 132" enable-background="new 0 0 133 132" xml:space="preserve">
<g>
	<linearGradient id="SVGID_1_" gradientUnits="userSpaceOnUse" x1="54.3066" y1="65.9536" x2="78.6484" y2="65.9536">
		<stop  offset="0" style="stop-color:#6D9BD2"/>
		<stop  offset="0.2381" style="stop-color:#618EBF"/>
		<stop  offset="0.6777" style="stop-color:#42749D"/>
		<stop  offset="1" style="stop-color:#256082"/>
	</linearGradient>
	<circle fill="url(#SVGID_1_)" cx="66.479" cy="65.954" r="12.173"/>
	<path fill="#FFFFFF" d="M74.309,127.768H58.65c-2.002,0-3.696-1.48-3.964-3.464l-1.431-10.583c-3.91-1.08-7.658-2.635-11.195-4.644
		l-8.503,6.475c-1.592,1.212-3.836,1.062-5.251-0.354L17.23,104.125c-1.416-1.416-1.567-3.66-0.354-5.253l6.477-8.502
		c-2.009-3.537-3.563-7.283-4.642-11.189L8.126,77.748c-1.984-0.269-3.464-1.962-3.464-3.964V58.125
		c0-2.002,1.479-3.695,3.463-3.964l10.587-1.434c1.079-3.906,2.633-7.652,4.642-11.19l-6.477-8.504
		c-1.214-1.593-1.063-3.837,0.354-5.253l11.076-11.074c1.416-1.416,3.661-1.566,5.253-0.353l8.499,6.479
		c3.541-2.012,7.289-3.567,11.194-4.646l1.434-10.583c0.269-1.983,1.962-3.463,3.964-3.463h15.658c2.002,0,3.696,1.48,3.964,3.464
		l1.431,10.583c3.909,1.079,7.655,2.634,11.192,4.646l8.5-6.479c1.594-1.214,3.838-1.063,5.253,0.354l11.074,11.074
		c1.416,1.415,1.567,3.659,0.354,5.251l-6.475,8.503c2.008,3.533,3.563,7.279,4.643,11.189l10.584,1.433
		c1.984,0.269,3.464,1.962,3.464,3.964v15.66c0,2.002-1.479,3.695-3.463,3.964l-10.584,1.434c-1.079,3.907-2.634,7.654-4.645,11.192
		l6.475,8.501c1.213,1.593,1.063,3.836-0.353,5.252l-11.07,11.074c-1.416,1.416-3.66,1.566-5.252,0.354l-8.506-6.474
		c-3.533,2.007-7.28,3.561-11.191,4.642l-1.432,10.584C78.004,126.289,76.311,127.768,74.309,127.768z M62.146,119.768h8.667
		l1.328-9.816c0.226-1.67,1.474-3.019,3.12-3.374c4.891-1.055,9.507-2.97,13.721-5.691c1.415-0.913,3.251-0.843,4.593,0.178
		l7.891,6.006l6.129-6.131l-6.007-7.887c-1.021-1.341-1.093-3.178-0.179-4.594c2.727-4.223,4.642-8.84,5.692-13.721
		c0.354-1.647,1.703-2.896,3.373-3.122l9.818-1.33v-8.67l-9.817-1.329c-1.67-0.226-3.02-1.475-3.374-3.121
		c-1.053-4.889-2.968-9.503-5.691-13.715c-0.915-1.416-0.845-3.254,0.177-4.595l6.008-7.89l-6.131-6.131l-7.887,6.011
		c-1.343,1.022-3.181,1.092-4.597,0.178c-4.219-2.728-8.834-4.644-13.718-5.694c-1.648-0.354-2.897-1.704-3.123-3.374l-1.327-9.816
		h-8.667l-1.33,9.817c-0.227,1.67-1.475,3.019-3.123,3.373c-4.878,1.05-9.494,2.966-13.722,5.695
		c-1.415,0.914-3.254,0.843-4.595-0.179l-7.886-6.011l-6.132,6.131l6.009,7.889c1.021,1.341,1.093,3.177,0.18,4.593
		c-2.726,4.224-4.64,8.839-5.691,13.72c-0.354,1.647-1.703,2.896-3.373,3.122l-9.82,1.33v8.669l9.819,1.329
		c1.67,0.226,3.02,1.475,3.374,3.122c1.052,4.881,2.966,9.496,5.691,13.72c0.913,1.416,0.842,3.253-0.18,4.593l-6.008,7.887
		l6.133,6.131l7.888-6.006c1.34-1.021,3.177-1.09,4.592-0.179c4.221,2.724,8.839,4.639,13.727,5.692
		c1.647,0.354,2.896,1.704,3.121,3.374L62.146,119.768z"/>
	<path fill="#FFFFFF" d="M66.477,97.034c-17.136,0-31.076-13.942-31.076-31.08c0-17.137,13.94-31.079,31.076-31.079
		c17.137,0,31.078,13.942,31.078,31.079C97.555,83.091,83.613,97.034,66.477,97.034z M66.477,42.875
		c-12.725,0-23.076,10.354-23.076,23.079c0,12.727,10.352,23.08,23.076,23.08c12.726,0,23.078-10.354,23.078-23.08
		C89.555,53.228,79.202,42.875,66.477,42.875z"/>
</g>
</svg>
