<?xml version="1.0" encoding="utf-8"?>
<!-- Generator: Adobe Illustrator 16.0.0, SVG Export Plug-In . SVG Version: 6.00 Build 0)  -->
<!DOCTYPE svg PUBLIC "-//W3C//DTD SVG 1.1//EN" "http://www.w3.org/Graphics/SVG/1.1/DTD/svg11.dtd">
<svg version="1.1" id="Layer_1" xmlns="http://www.w3.org/2000/svg" xmlns:xlink="http://www.w3.org/1999/xlink" x="0px" y="0px"
	 width="93.581px" height="93.563px" viewBox="0 0 93.581 93.563" enable-background="new 0 0 93.581 93.563" xml:space="preserve">
<g>
	<path fill="#EC2227" d="M88.242,47.468c0,5.112-4.146,9.258-9.264,9.258c-5.113,0-9.264-4.146-9.264-9.258
		c0-5.119,4.149-9.266,9.264-9.266C84.095,38.202,88.242,42.349,88.242,47.468z"/>
	<circle fill="#EC2227" cx="47.487" cy="15.97" r="9.264"/>
	<ellipse fill="#EC2227" cx="47.487" cy="78.958" rx="9.259" ry="9.259"/>
	<path fill="#EC2227" d="M25.26,47.468c0,5.112-4.147,9.258-9.263,9.258c-5.116,0-9.264-4.146-9.264-9.258
		c0-5.119,4.147-9.266,9.264-9.266C21.112,38.202,25.26,42.349,25.26,47.468z"/>
	<path fill="#EC2227" d="M34.786,69.166c0,5.115-4.147,9.261-9.262,9.261c-5.116,0-9.263-4.146-9.263-9.261
		c0-5.118,4.146-9.266,9.263-9.266C30.639,59.9,34.786,64.048,34.786,69.166z"/>
	<path fill="#EC2227" d="M79.245,69.694c0,5.115-4.146,9.264-9.265,9.264c-5.112,0-9.264-4.147-9.264-9.264s4.15-9.263,9.264-9.263
		C75.099,60.432,79.245,64.578,79.245,69.694z"/>
	<circle fill="#EC2227" cx="70.511" cy="25.235" r="9.264"/>
	<path fill="#EC2227" d="M34.256,24.708c0,5.114-4.146,9.261-9.262,9.261c-5.12,0-9.262-4.146-9.262-9.261
		c0-5.116,4.142-9.264,9.262-9.264C30.108,15.444,34.256,19.592,34.256,24.708z"/>
</g>
</svg>
