<?xml version="1.0" encoding="utf-8"?>
<!-- Generator: Adobe Illustrator 16.0.0, SVG Export Plug-In . SVG Version: 6.00 Build 0)  -->
<!DOCTYPE svg PUBLIC "-//W3C//DTD SVG 1.1//EN" "http://www.w3.org/Graphics/SVG/1.1/DTD/svg11.dtd">
<svg version="1.1" id="Layer_1" xmlns="http://www.w3.org/2000/svg" xmlns:xlink="http://www.w3.org/1999/xlink" x="0px" y="0px"
	 width="151.107px" height="62.344px" viewBox="0 0 151.107 62.344" enable-background="new 0 0 151.107 62.344"
	 xml:space="preserve">
<g>
	<g>
		<path fill="#FFFFFF" d="M3.807,3.617h19.52c5.756,0,10.034,0.855,12.831,2.563c2.798,1.708,4.197,4.306,4.197,7.788
			c0,2.413-0.669,4.39-2.007,5.93c-1.378,1.542-3.588,2.798-6.629,3.768L40.11,40.85H29.65l-7.54-15.826h-8.149V40.85H3.807V3.617z
			 M13.961,8.14v12.513h7.966c2.473,0,4.399-0.537,5.777-1.609c1.46-1.104,2.19-2.681,2.19-4.724c0-2.109-0.71-3.684-2.13-4.724
			c-1.337-0.97-3.244-1.456-5.716-1.456H13.961z"/>
		<path fill="#FFFFFF" d="M46.739,3.617h10.398V40.85H46.739V3.617z"/>
		<path fill="#FFFFFF" d="M147.202,3.616h-11.057v0.001h-2.993l0.304,25.777L116.125,3.617H105.3V40.85h8.33l-0.303-28.491
			l19.213,28.491h8.942V11.842h0.017c-0.005-0.11-0.014-0.221-0.017-0.332v-0.097C141.505,7.762,143.899,4.677,147.202,3.616z"/>
		<path fill="#FFFFFF" d="M75.442,3.617h11.615l13.682,37.232H90.584l-3.286-9.647H73.253l-3.225,9.647h-8.208L75.442,3.617z
			 M85.961,26.682l-5.777-16.381l-5.533,16.381H85.961z"/>
	</g>
	<g>
		<path fill="#EEEEEE" d="M12.16,55.286l1.31,0.278c-0.274,0.904-0.769,1.593-1.482,2.067c-0.713,0.476-1.585,0.713-2.617,0.713
			c-1.066,0-1.934-0.183-2.603-0.547c-0.668-0.366-1.177-0.895-1.526-1.587S4.72,54.775,4.72,53.981
			c0-0.867,0.196-1.623,0.591-2.268c0.394-0.645,0.954-1.136,1.681-1.469c0.727-0.336,1.527-0.504,2.4-0.504
			c0.99,0,1.822,0.213,2.499,0.636c0.675,0.425,1.145,1.021,1.41,1.788l-1.289,0.255c-0.229-0.605-0.563-1.045-1-1.321
			c-0.436-0.277-0.985-0.415-1.646-0.415c-0.761,0-1.397,0.153-1.908,0.46c-0.511,0.307-0.87,0.718-1.077,1.233
			c-0.207,0.518-0.311,1.05-0.311,1.598c0,0.708,0.123,1.326,0.369,1.854c0.245,0.527,0.626,0.922,1.144,1.183
			c0.518,0.262,1.078,0.392,1.681,0.392c0.733,0,1.355-0.177,1.863-0.533C11.636,56.514,11.98,55.985,12.16,55.286z"/>
		<path fill="#EEEEEE" d="M15.515,54.151c0-1.381,0.441-2.463,1.323-3.243c0.882-0.781,2.021-1.172,3.416-1.172
			c0.914,0,1.738,0.184,2.472,0.55c0.733,0.367,1.292,0.879,1.677,1.535c0.385,0.657,0.577,1.401,0.577,2.233
			c0,0.844-0.203,1.598-0.607,2.264c-0.405,0.666-0.979,1.171-1.722,1.513c-0.743,0.343-1.544,0.514-2.404,0.514
			c-0.931,0-1.764-0.189-2.498-0.568c-0.734-0.378-1.29-0.894-1.667-1.548C15.704,55.573,15.515,54.882,15.515,54.151z
			 M16.866,54.168c0,1.002,0.32,1.792,0.961,2.37c0.642,0.577,1.446,0.864,2.414,0.864c0.986,0,1.797-0.292,2.434-0.873
			c0.637-0.583,0.956-1.41,0.956-2.48c0-0.677-0.136-1.269-0.408-1.773c-0.273-0.505-0.671-0.896-1.196-1.175
			c-0.524-0.278-1.113-0.417-1.766-0.417c-0.927,0-1.725,0.268-2.393,0.803C17.2,52.021,16.866,52.916,16.866,54.168z"/>
		<path fill="#EEEEEE" d="M27.458,58.203v-8.318h1.971l2.342,5.889c0.217,0.549,0.374,0.959,0.473,1.232
			c0.113-0.303,0.288-0.747,0.527-1.334l2.369-5.787h1.762v8.318h-1.262V51.24l-2.876,6.963h-1.182l-2.862-7.082v7.082H27.458z"/>
		<path fill="#EEEEEE" d="M39.806,58.203v-8.318h1.972l2.342,5.889c0.217,0.549,0.374,0.959,0.472,1.232
			c0.113-0.303,0.289-0.747,0.527-1.334l2.37-5.787h1.762v8.318h-1.262V51.24l-2.876,6.963h-1.182l-2.862-7.082v7.082H39.806z"/>
		<path fill="#EEEEEE" d="M58.688,49.885h1.311v4.805c0,0.837-0.113,1.501-0.338,1.992c-0.225,0.493-0.631,0.892-1.219,1.2
			s-1.358,0.463-2.313,0.463c-0.927,0-1.686-0.135-2.275-0.403c-0.59-0.268-1.011-0.656-1.262-1.166
			c-0.254-0.509-0.379-1.204-0.379-2.086v-4.805h1.311v4.8c0,0.724,0.08,1.255,0.239,1.598c0.159,0.342,0.435,0.606,0.824,0.792
			c0.389,0.185,0.865,0.277,1.427,0.277c0.963,0,1.65-0.184,2.061-0.55c0.408-0.367,0.613-1.073,0.613-2.117V49.885z"/>
		<path fill="#EEEEEE" d="M62.995,58.203v-8.318h1.344l5.198,6.53v-6.53h1.256v8.318h-1.344l-5.198-6.538v6.538H62.995z"/>
		<path fill="#EEEEEE" d="M74.046,58.203v-8.318h1.31v8.318H74.046z"/>
		<path fill="#EEEEEE" d="M85.557,55.286l1.309,0.278c-0.273,0.904-0.768,1.593-1.481,2.067c-0.713,0.476-1.584,0.713-2.616,0.713
			c-1.066,0-1.935-0.183-2.603-0.547c-0.668-0.366-1.178-0.895-1.526-1.587s-0.522-1.436-0.522-2.229
			c0-0.867,0.197-1.623,0.591-2.268c0.395-0.645,0.954-1.136,1.681-1.469c0.728-0.336,1.527-0.504,2.4-0.504
			c0.99,0,1.822,0.213,2.499,0.636c0.674,0.425,1.145,1.021,1.409,1.788l-1.288,0.255c-0.23-0.605-0.563-1.045-1-1.321
			c-0.436-0.277-0.986-0.415-1.646-0.415c-0.761,0-1.396,0.153-1.907,0.46s-0.87,0.718-1.078,1.233
			c-0.206,0.518-0.311,1.05-0.311,1.598c0,0.708,0.123,1.326,0.369,1.854c0.244,0.527,0.625,0.922,1.145,1.183
			c0.517,0.262,1.077,0.392,1.68,0.392c0.733,0,1.354-0.177,1.863-0.533C85.032,56.514,85.375,55.985,85.557,55.286z"/>
		<path fill="#EEEEEE" d="M88.223,58.203l3.801-8.318h1.411l4.051,8.318h-1.492l-1.155-2.521h-4.14l-1.086,2.521H88.223z
			 M91.079,54.787h3.355l-1.033-2.305c-0.315-0.699-0.549-1.274-0.703-1.725c-0.125,0.533-0.302,1.063-0.532,1.589L91.079,54.787z"
			/>
		<path fill="#EEEEEE" d="M100.854,58.203v-7.338h-3.261v-0.98h7.845v0.98h-3.275v7.338H100.854z"/>
		<path fill="#EEEEEE" d="M107.834,58.203v-8.318h1.309v8.318H107.834z"/>
		<path fill="#EEEEEE" d="M111.884,54.151c0-1.381,0.441-2.463,1.322-3.243c0.883-0.781,2.021-1.172,3.418-1.172
			c0.913,0,1.736,0.184,2.47,0.55c0.733,0.367,1.292,0.879,1.678,1.535c0.386,0.657,0.577,1.401,0.577,2.233
			c0,0.844-0.202,1.598-0.607,2.264s-0.979,1.171-1.722,1.513c-0.742,0.343-1.543,0.514-2.403,0.514
			c-0.932,0-1.764-0.189-2.498-0.568c-0.733-0.378-1.29-0.894-1.667-1.548C112.072,55.573,111.884,54.882,111.884,54.151z
			 M113.234,54.168c0,1.002,0.32,1.792,0.962,2.37c0.643,0.577,1.446,0.864,2.414,0.864c0.985,0,1.798-0.292,2.435-0.873
			c0.637-0.583,0.954-1.41,0.954-2.48c0-0.677-0.135-1.269-0.408-1.773c-0.271-0.505-0.671-0.896-1.194-1.175
			c-0.524-0.278-1.113-0.417-1.766-0.417c-0.928,0-1.726,0.268-2.393,0.803C113.569,52.021,113.234,52.916,113.234,54.168z"/>
		<path fill="#EEEEEE" d="M123.853,58.203v-8.318h1.344l5.199,6.53v-6.53h1.257v8.318h-1.345l-5.198-6.538v6.538H123.853z"/>
		<path fill="#EEEEEE" d="M134.236,55.53l1.237-0.091c0.058,0.415,0.193,0.757,0.407,1.024c0.214,0.267,0.545,0.482,0.995,0.646
			c0.45,0.165,0.957,0.246,1.52,0.246c0.501,0,0.941-0.062,1.324-0.187c0.382-0.125,0.667-0.296,0.854-0.514s0.28-0.455,0.28-0.713
			c0-0.261-0.09-0.488-0.271-0.683c-0.18-0.194-0.477-0.358-0.891-0.49c-0.265-0.088-0.853-0.224-1.763-0.407
			c-0.908-0.182-1.545-0.356-1.91-0.519c-0.473-0.209-0.825-0.467-1.057-0.774c-0.232-0.309-0.348-0.653-0.348-1.036
			c0-0.419,0.142-0.812,0.425-1.178c0.283-0.364,0.698-0.642,1.243-0.83c0.544-0.189,1.149-0.285,1.815-0.285
			c0.733,0,1.381,0.101,1.941,0.299c0.56,0.198,0.99,0.49,1.293,0.876c0.301,0.386,0.463,0.823,0.486,1.312l-1.256,0.08
			c-0.067-0.526-0.296-0.924-0.686-1.192s-0.965-0.403-1.726-0.403c-0.791,0-1.369,0.123-1.731,0.367
			c-0.361,0.243-0.543,0.537-0.543,0.882c0,0.299,0.128,0.545,0.385,0.737c0.251,0.192,0.91,0.391,1.975,0.593
			c1.065,0.202,1.795,0.38,2.19,0.53c0.575,0.225,1.003,0.507,1.277,0.849c0.273,0.343,0.411,0.738,0.411,1.184
			c0,0.442-0.151,0.86-0.452,1.251c-0.302,0.392-0.734,0.696-1.301,0.914c-0.564,0.218-1.2,0.326-1.907,0.326
			c-0.896,0-1.646-0.109-2.251-0.329c-0.605-0.219-1.08-0.55-1.424-0.99C134.436,56.585,134.253,56.086,134.236,55.53z"/>
	</g>
</g>
</svg>
