<?xml version="1.0" encoding="utf-8"?>
<!-- Generator: Adobe Illustrator 16.0.0, SVG Export Plug-In . SVG Version: 6.00 Build 0)  -->
<!DOCTYPE svg PUBLIC "-//W3C//DTD SVG 1.1//EN" "http://www.w3.org/Graphics/SVG/1.1/DTD/svg11.dtd">
<svg version="1.1" id="Layer_1" xmlns="http://www.w3.org/2000/svg" xmlns:xlink="http://www.w3.org/1999/xlink" x="0px" y="0px"
	 width="282.828px" height="132.236px" viewBox="0 0 282.828 132.236" enable-background="new 0 0 282.828 132.236"
	 xml:space="preserve">
<g>
	<g>
		<path d="M10.585,128.766c-0.978-1.476-2.033-3.31-3.166-5.503c-1.134-2.192-1.7-4.829-1.7-7.907c0-3.06,0.566-5.691,1.7-7.896
			c1.133-2.201,2.188-4.032,3.166-5.488h2.876c-1.457,2.526-2.503,4.89-3.139,7.093c-0.636,2.202-0.954,4.299-0.954,6.291
			c0,2.009,0.318,4.115,0.954,6.316c0.636,2.204,1.682,4.568,3.139,7.094H10.585z"/>
		<path d="M29,119.696v7.825h-3.733v-7.825H14.954v-3.18h24.332v3.18H29z M35.691,114.773c-1.438-0.313-2.927-0.811-4.466-1.493
			c-1.539-0.682-2.898-1.64-4.078-2.876c-0.608,0.96-1.742,1.854-3.401,2.684c-1.659,0.828-3.374,1.4-5.143,1.714l-2.157-2.654
			c1.751-0.258,3.544-0.856,5.379-1.797c1.833-0.94,2.898-1.982,3.193-3.124h-7.355v-3.153h18.913v3.153h-7.3
			c0.479,1.271,1.646,2.345,3.498,3.22c1.853,0.876,3.543,1.443,5.073,1.701L35.691,114.773z"/>
		<path d="M43.876,121.687c0.607-2.157,0.912-4.267,0.912-6.331c0-2.046-0.305-4.147-0.912-6.305
			c-0.608-2.157-1.641-4.461-3.097-6.913h2.516c0.977,1.457,2.019,3.272,3.124,5.447c1.105,2.176,1.659,4.766,1.659,7.771
			c0,3.023-0.554,5.617-1.659,7.782c-1.105,2.167-2.147,3.986-3.124,5.462h-2.516C42.235,126.147,43.268,123.844,43.876,121.687z"/>
		<path d="M63.176,122.488c-1.751,0.165-3.476,0.25-5.171,0.25l-5.751,0.027v-10.369h8.516v-3.926h-8.516v-3.181h12.221v10.258
			h-8.516v4.037h3.456c1.143,0,2.502-0.078,4.078-0.234c1.576-0.157,2.797-0.299,3.664-0.429v3.125
			C66.254,122.176,64.927,122.322,63.176,122.488z M68.844,127.521v-24.333h3.678v24.333H68.844z"/>
		<path d="M88.351,114.235c-1.3,1.207-2.964,1.812-4.991,1.812c-2.009,0-3.668-0.604-4.977-1.812
			c-1.31-1.208-1.964-2.659-1.964-4.354c0-1.697,0.654-3.156,1.964-4.384c1.309-1.225,2.968-1.838,4.977-1.838
			c2.027,0,3.691,0.613,4.991,1.838c1.3,1.228,1.949,2.687,1.949,4.384C90.3,111.576,89.65,113.027,88.351,114.235z M95.554,126.374
			c-1.641,0.967-3.973,1.451-6.996,1.451c-3.06,0-5.396-0.484-7.009-1.451c-1.614-0.969-2.42-2.182-2.42-3.636
			c0-1.476,0.811-2.701,2.434-3.679c1.622-0.977,3.954-1.465,6.995-1.465c3.023,0,5.355,0.488,6.996,1.465
			c1.641,0.978,2.461,2.203,2.461,3.679C98.015,124.192,97.194,125.405,95.554,126.374z M85.752,107.709
			c-0.563-0.616-1.36-0.926-2.393-0.926c-1.014,0-1.807,0.31-2.378,0.926c-0.571,0.618-0.856,1.342-0.856,2.172
			c0,0.828,0.285,1.549,0.856,2.155c0.571,0.608,1.364,0.913,2.378,0.913c1.032,0,1.83-0.305,2.393-0.913
			c0.562-0.606,0.843-1.327,0.843-2.155C86.595,109.051,86.313,108.327,85.752,107.709z M92.442,121.134
			c-0.985-0.461-2.271-0.691-3.856-0.691c-1.623,0-2.932,0.222-3.927,0.664c-0.995,0.441-1.493,0.986-1.493,1.632
			c0,0.59,0.493,1.108,1.479,1.562c0.985,0.45,2.3,0.677,3.94,0.677c1.621,0,2.917-0.217,3.885-0.65
			c0.967-0.433,1.451-0.952,1.451-1.561C93.922,122.139,93.429,121.594,92.442,121.134z M97.268,111.953v5.392h-3.677v-14.156h3.677
			v5.558h3.318v3.207H97.268z"/>
		<path d="M112.42,116.945c-2.138,2.958-4.857,5.238-8.156,6.843l-2.849-2.211c1.364-0.59,2.918-1.578,4.659-2.959
			c1.742-1.383,2.898-2.774,3.47-4.176c-0.884,0.185-1.917,0.331-3.097,0.442c-1.18,0.11-2.534,0.166-4.064,0.166v-2.932
			c1.641,0,3.277-0.063,4.908-0.192c1.632-0.13,2.815-0.277,3.553-0.443c0.11-0.404,0.203-0.853,0.276-1.34
			c0.074-0.489,0.129-0.928,0.166-1.314h-8.073v-3.151h12.414C115.627,110.231,114.558,113.986,112.42,116.945z M119.608,127.521
			v-11.807h-4.313v-3.318h4.313v-9.208h3.706v24.333H119.608z"/>
		<path d="M145.241,119.42v8.102h-3.733v-8.102h-5.309v7.824h-3.76v-7.824h-5.808v-3.208h24.333v3.208H145.241z M129.563,114.001
			v-9.928h18.47v9.928H129.563z M144.328,107.227h-11.06v3.621h11.06V107.227z"/>
		<path d="M165.136,121.825c-1.596,0.222-3.24,0.341-4.936,0.358h-6.166v-17.005h3.705v13.826h2.544
			c1.253-0.019,2.714-0.119,4.382-0.304c1.668-0.186,3.028-0.378,4.079-0.582v3.125
			C167.933,121.411,166.729,121.604,165.136,121.825z M170.458,127.521v-24.333h3.678v24.333H170.458z"/>
		<path d="M186.246,117.042c-1.77,2.986-3.862,5.28-6.276,6.885l-2.737-1.991c1.234-0.812,2.438-1.793,3.608-2.944
			c1.17-1.152,1.986-2.421,2.446-3.802c-0.719,0.054-1.488,0.109-2.309,0.166c-0.82,0.056-1.691,0.082-2.612,0.082v-2.985
			c1.013,0,2.019-0.015,3.014-0.041c0.995-0.029,1.972-0.042,2.931-0.042c0.203-0.591,0.341-1.161,0.415-1.714
			c0.073-0.554,0.129-1.089,0.165-1.604h-5.778v-3.151h9.788C188.9,110.341,188.017,114.055,186.246,117.042z M191.307,126.415
			v-10.784h-2.849v-3.262h2.849v-8.627h3.539v22.673H191.307z M196.615,127.521v-24.333h3.539v24.333H196.615z"/>
		<path d="M216.468,120.678c-1.254,1.705-2.95,2.558-5.088,2.558c-2.12,0-3.812-0.843-5.074-2.53s-1.894-3.913-1.894-6.678
			c0-2.783,0.631-5.014,1.894-6.691s2.954-2.516,5.074-2.516c2.138,0,3.834,0.848,5.088,2.543c1.253,1.697,1.88,3.918,1.88,6.664
			C218.348,116.756,217.721,118.974,216.468,120.678z M213.841,109.907c-0.59-1.217-1.4-1.824-2.434-1.824
			c-1.032,0-1.852,0.612-2.461,1.839c-0.608,1.226-0.912,2.584-0.912,4.079c0,1.529,0.304,2.907,0.912,4.133
			c0.609,1.227,1.429,1.839,2.461,1.839c1.033,0,1.844-0.609,2.434-1.824c0.59-1.218,0.885-2.601,0.885-4.147
			C214.726,112.488,214.431,111.125,213.841,109.907z M221.998,127.521v-24.333h3.677v24.333H221.998z"/>
		<path d="M242.403,117.678c-1.033-0.442-2.093-1.083-3.18-1.921c-1.088-0.84-2.009-1.794-2.766-2.863
			c-0.59,1.069-1.396,2.102-2.419,3.097c-1.022,0.996-2.106,1.798-3.249,2.406l-2.654-2.516c1.622-0.701,3.087-1.834,4.396-3.401
			c1.309-1.566,1.963-3.346,1.963-5.336v-3.375h3.954v3.375c0,1.897,0.668,3.563,2.005,4.99c1.336,1.429,2.732,2.374,4.188,2.834
			L242.403,117.678z M232.975,126.969v-7.632h3.733v4.451h14.848v3.181H232.975z M247.298,120.773v-7.077h-4.121v-3.124h4.121
			v-1.965h-4.121v-3.124h4.121v-2.295h3.677v17.585H247.298z"/>
		<path d="M253.822,124.784v-3.153h24.333v3.153H253.822z M274.478,118.424c-1.032-0.184-2.488-0.802-4.369-1.854
			c-1.88-1.05-3.253-2.221-4.12-3.511c-0.553,0.995-1.645,2.032-3.276,3.111c-1.631,1.078-3.369,1.829-5.212,2.253l-2.239-2.571
			c1.695-0.332,3.558-1.133,5.585-2.406c2.027-1.271,3.042-2.957,3.042-5.059h-7.411v-3.153h19.024v3.153h-7.411
			c0,2.063,1.115,3.751,3.347,5.059c2.229,1.31,3.99,2.111,5.28,2.406L274.478,118.424z"/>
	</g>
	<g>
		<path fill="#ED1C24" d="M192.08,46.478c0,5.113-4.147,9.258-9.264,9.258c-5.113,0-9.264-4.145-9.264-9.258
			c0-5.119,4.15-9.265,9.264-9.265C187.933,37.213,192.08,41.359,192.08,46.478z"/>
		<circle fill="#ED1C24" cx="151.325" cy="14.981" r="9.264"/>
		<ellipse fill="#ED1C24" cx="151.325" cy="77.969" rx="9.264" ry="9.259"/>
		<path fill="#ED1C24" d="M129.098,46.478c0,5.113-4.147,9.258-9.263,9.258c-5.116,0-9.264-4.145-9.264-9.258
			c0-5.119,4.147-9.265,9.264-9.265C124.95,37.213,129.098,41.359,129.098,46.478z"/>
		<path fill="#ED1C24" d="M138.624,68.177c0,5.115-4.147,9.26-9.262,9.26c-5.116,0-9.263-4.145-9.263-9.26
			c0-5.119,4.146-9.266,9.263-9.266C134.477,58.911,138.624,63.058,138.624,68.177z"/>
		<path fill="#ED1C24" d="M183.083,68.705c0,5.115-4.146,9.264-9.265,9.264c-5.112,0-9.263-4.148-9.263-9.264
			c0-5.116,4.15-9.263,9.263-9.263C178.937,59.442,183.083,63.589,183.083,68.705z"/>
		<circle fill="#ED1C24" cx="174.349" cy="24.246" r="9.264"/>
		<path fill="#ED1C24" d="M138.094,23.719c0,5.114-4.146,9.26-9.262,9.26c-5.12,0-9.262-4.146-9.262-9.26
			c0-5.117,4.142-9.264,9.262-9.264C133.947,14.455,138.094,18.602,138.094,23.719z"/>
	</g>
</g>
</svg>
