<?xml version="1.0" encoding="utf-8"?>
<!-- Generator: Adobe Illustrator 16.0.0, SVG Export Plug-In . SVG Version: 6.00 Build 0)  -->
<!DOCTYPE svg PUBLIC "-//W3C//DTD SVG 1.1//EN" "http://www.w3.org/Graphics/SVG/1.1/DTD/svg11.dtd">
<svg version="1.1" id="Layer_1" xmlns="http://www.w3.org/2000/svg" xmlns:xlink="http://www.w3.org/1999/xlink" x="0px" y="0px"
	 width="124.764px" height="130.624px" viewBox="0 0 124.764 130.624" enable-background="new 0 0 124.764 130.624"
	 xml:space="preserve">
<g>
	<path fill="#FFFFFF" d="M62.047,128.42c-2.209,0-4-1.791-4-4v-23.968c0-2.209,1.791-4,4-4s4,1.791,4,4v23.968
		C66.047,126.629,64.256,128.42,62.047,128.42z"/>
	<path fill="#FFFFFF" d="M121.247,35.245L107.419,18.19c-0.759-0.937-1.901-1.48-3.106-1.48H66.047V6.42c0-2.209-1.791-4-4-4
		s-4,1.791-4,4v10.289H27.016c-6.194,0-11.234,5.039-11.234,11.233v19.643c0,6.194,5.04,11.233,11.234,11.233h31.031v7.524
		c0,2.209,1.791,4,4,4s4-1.791,4-4v-7.524h38.266c1.205,0,2.348-0.544,3.106-1.48l13.828-17.055
		C122.438,38.815,122.438,36.713,121.247,35.245z M102.406,50.819H27.016c-1.783,0-3.234-1.45-3.234-3.233V27.943
		c0-1.783,1.451-3.233,3.234-3.233h75.391l10.584,13.055L102.406,50.819z"/>
	<g>
		<linearGradient id="SVGID_1_" gradientUnits="userSpaceOnUse" x1="2.627" y1="83.3979" x2="108.9863" y2="83.3979">
			<stop  offset="0" style="stop-color:#6D9BD2"/>
			<stop  offset="0.2381" style="stop-color:#618EBF"/>
			<stop  offset="0.6777" style="stop-color:#42749D"/>
			<stop  offset="1" style="stop-color:#256082"/>
		</linearGradient>
		<path fill="url(#SVGID_1_)" d="M97.752,104.453H20.456c-1.206,0-2.348-0.544-3.107-1.48L3.521,85.917
			c-1.191-1.469-1.191-3.57,0-5.039l13.828-17.055c0.759-0.937,1.901-1.48,3.107-1.48h77.296c6.194,0,11.234,5.04,11.234,11.234
			v19.642C108.986,99.414,103.946,104.453,97.752,104.453z M22.362,96.453h75.39c1.783,0,3.234-1.45,3.234-3.233V73.578
			c0-1.783-1.451-3.234-3.234-3.234h-75.39L11.777,83.398L22.362,96.453z"/>
	</g>
</g>
</svg>
