<?xml version="1.0" encoding="utf-8"?>
<!-- Generator: Adobe Illustrator 16.0.0, SVG Export Plug-In . SVG Version: 6.00 Build 0)  -->
<!DOCTYPE svg PUBLIC "-//W3C//DTD SVG 1.1//EN" "http://www.w3.org/Graphics/SVG/1.1/DTD/svg11.dtd">
<svg version="1.1" id="Layer_1" xmlns="http://www.w3.org/2000/svg" xmlns:xlink="http://www.w3.org/1999/xlink" x="0px" y="0px"
	 width="134.979px" height="95.677px" viewBox="0 0 134.979 95.677" enable-background="new 0 0 134.979 95.677"
	 xml:space="preserve">
<g>
	<g>
		<g>
			<g>
				<path fill="#FFFFFF" d="M67.49,93.404c-0.776,0-1.55-0.226-2.219-0.672c-10.288-6.855-26.51-8.295-38.305-8.295
					c-10.293,0-18.205,1.101-18.283,1.111c-1.143,0.164-2.309-0.18-3.184-0.94c-0.875-0.76-1.378-1.86-1.378-3.02V9.815
					c0-2,1.478-3.693,3.46-3.963c6.811-0.929,13.5-1.399,19.881-1.399c27.607,0,41.59,8.678,42.171,9.047
					c1.155,0.734,1.855,2.008,1.855,3.376v72.528c0,1.475-0.812,2.83-2.112,3.526C68.785,93.248,68.136,93.404,67.49,93.404z
					 M26.966,76.438c10.813,0,25.133,1.176,36.522,6.248V19.28c-4.364-2.092-16.413-6.828-36.026-6.828
					c-4.94,0-10.087,0.3-15.341,0.895v63.772C15.618,76.795,20.865,76.438,26.966,76.438z"/>
			</g>
			<g>
				<path fill="#FFFFFF" d="M67.488,93.404c-0.646,0-1.295-0.156-1.887-0.473c-1.3-0.697-2.112-2.053-2.112-3.527V16.876
					c0-1.369,0.7-2.643,1.855-3.376c0.582-0.37,14.564-9.047,42.171-9.047c6.382,0,13.07,0.471,19.882,1.399
					c1.982,0.271,3.46,1.963,3.46,3.963v71.774c0,1.159-0.504,2.26-1.378,3.02c-0.875,0.761-2.038,1.104-3.184,0.94
					c-0.078-0.011-7.99-1.111-18.284-1.111c-11.797,0-28.018,1.439-38.304,8.295C69.039,93.179,68.265,93.404,67.488,93.404z
					 M71.489,19.281v63.405c11.389-5.073,25.708-6.248,36.522-6.248c6.101,0,11.349,0.358,14.846,0.682V13.347
					c-5.254-0.594-10.4-0.895-15.342-0.895C87.914,12.452,75.868,17.183,71.489,19.281z"/>
			</g>
		</g>
		<g>
			<linearGradient id="SVGID_1_" gradientUnits="userSpaceOnUse" x1="27.439" y1="21.4053" x2="35.439" y2="21.4053">
				<stop  offset="0" style="stop-color:#6D9BD2"/>
				<stop  offset="0.2381" style="stop-color:#618EBF"/>
				<stop  offset="0.6777" style="stop-color:#42749D"/>
				<stop  offset="1" style="stop-color:#256082"/>
			</linearGradient>
			<path fill="url(#SVGID_1_)" d="M31.439,40.538c-2.209,0-4-1.791-4-4V6.273c0-2.209,1.791-4,4-4s4,1.791,4,4v30.265
				C35.439,38.747,33.648,40.538,31.439,40.538z"/>
		</g>
	</g>
</g>
</svg>
