<?xml version="1.0" encoding="utf-8"?>
<!-- Generator: Adobe Illustrator 16.0.0, SVG Export Plug-In . SVG Version: 6.00 Build 0)  -->
<!DOCTYPE svg PUBLIC "-//W3C//DTD SVG 1.1//EN" "http://www.w3.org/Graphics/SVG/1.1/DTD/svg11.dtd">
<svg version="1.1" id="Layer_1" xmlns="http://www.w3.org/2000/svg" xmlns:xlink="http://www.w3.org/1999/xlink" x="0px" y="0px"
	 width="129.602px" height="106.968px" viewBox="0 0 129.602 106.968" enable-background="new 0 0 129.602 106.968"
	 xml:space="preserve">
<g>
	<path fill="#FFFFFF" d="M102.138,18.252H45.96L41.724,5.741c-0.55-1.625-2.074-2.717-3.789-2.717H14.091
		c-1.715,0-3.239,1.093-3.789,2.717L5.146,20.969c-0.052,0.154-0.094,0.31-0.127,0.467c-0.003,0.014-0.004,0.029-0.007,0.044
		c-0.045,0.231-0.066,0.465-0.07,0.699c0,0.025-0.007,0.048-0.007,0.073v58.296c0,8.246,6.708,14.953,14.953,14.953h93.203
		c2.209,0,4-1.791,4-4V33.205C117.091,24.96,110.383,18.252,102.138,18.252z M16.96,11.024h18.106l2.447,7.228H14.513L16.96,11.024z
		 M109.091,87.501H19.888c-3.834,0-6.953-3.119-6.953-6.953V26.252h30.156h59.047c3.834,0,6.953,3.119,6.953,6.953V87.501z"/>
	<linearGradient id="SVGID_1_" gradientUnits="userSpaceOnUse" x1="83.4253" y1="81.2515" x2="126.9253" y2="81.2515">
		<stop  offset="0" style="stop-color:#6D9BD2"/>
		<stop  offset="0.2381" style="stop-color:#618EBF"/>
		<stop  offset="0.6777" style="stop-color:#42749D"/>
		<stop  offset="1" style="stop-color:#256082"/>
	</linearGradient>
	<circle fill="url(#SVGID_1_)" cx="105.175" cy="81.251" r="21.75"/>
	<path fill="#FFFFFF" d="M101.183,91.324c-0.13,0-0.261-0.008-0.393-0.022c-0.966-0.109-1.844-0.616-2.422-1.398l-5.248-7.107
		c-1.148-1.555-0.818-3.745,0.736-4.894s3.744-0.818,4.893,0.736l3.011,4.076l10.373-8.915c1.465-1.261,3.674-1.093,4.935,0.372
		c1.26,1.466,1.092,3.676-0.373,4.935l-13.23,11.372C102.827,91.026,102.016,91.324,101.183,91.324z"/>
</g>
</svg>
